<?xml version="1.0" encoding="utf-8"?>
<!-- Generator: Adobe Illustrator 25.4.1, SVG Export Plug-In . SVG Version: 6.00 Build 0)  -->
<svg version="1.1" id="Layer_1" xmlns="http://www.w3.org/2000/svg" xmlns:xlink="http://www.w3.org/1999/xlink" x="0px" y="0px"
	 viewBox="0 0 80 80" style="enable-background:new 0 0 80 80;" xml:space="preserve">
<style type="text/css">
	.st0{fill:#1E1E24;}
</style>
<path id="Icon_ionic-ios-close" class="st0" d="M43.8,40l11.4-11.4c1-1,1-2.7,0-3.8s-2.7-1-3.8,0L40,36.2L28.6,24.8
	c-1-1-2.7-1-3.8,0s-1,2.7,0,3.8L36.2,40L24.8,51.4c-1,1-1,2.7,0,3.8s2.7,1,3.8,0L40,43.8l11.4,11.4c1,1,2.7,1,3.8,0s1-2.7,0-3.8
	L43.8,40z"/>
</svg>
