<svg id="Layer_1" data-name="Layer 1" xmlns="http://www.w3.org/2000/svg" viewBox="0 0 476.1 529.2"><defs><style>.cls-1{fill:#231f20;}</style></defs><path d="M271.8,104.2c-2.5-5.6-5-9.2-7.8-10-26.8-8.4-24.1-9.6-66,0-40.8,9.3-54.5,281.6-55.3,296.7a1.23,1.23,0,0,0,.5,1c92.9,57.9,163.4,0,163.3-1.3C306,374.3,293.7,154.6,271.8,104.2Zm-72.5,47.1a10.8,10.8,0,1,1,10.8,10.8A10.76,10.76,0,0,1,199.3,151.3Zm32.4,54.9a15.1,15.1,0,1,1,15.1-15.1A15.09,15.09,0,0,1,231.7,206.2Zm19.5-44.1A10.8,10.8,0,1,1,262,151.3,10.76,10.76,0,0,1,251.2,162.1Z" transform="translate(0 0.1)"/><path class="cls-1" d="M14.4,89.9c28.2-35.1,81.5,7.6,53.2,42.8L53.2,150.6l-.9-.7.1-.6c.4-3.1-1.1-5.3-3.9-7.6L9.7,110.4c-2.8-2.2-5.2-3.2-8.2-2.2l-.6.2-.9-.6ZM66.7,132c16.8-20.8-34.6-62.2-51.4-41.4L11.7,95l51.5,41.4Z" transform="translate(0 0.1)"/><path class="cls-1" d="M79.9,53c30.4-22.1,60,18.3,29.5,40.5S49.5,75.2,79.9,53Zm28.8,39.6c15.5-11.3-12.6-50-28.1-38.7S93.2,103.9,108.7,92.6Z" transform="translate(0 0.1)"/><path class="cls-1" d="M119,5.4l19.4,47.7,7.4-21.3c2-5.8-2-10.1-7.5-7.9l-2.3.9-.4-1,17.3-7,.4,1-.4.5c-3.1,4-4.3,8.9-5.6,12.6l-1.2,3.5,19,19.1c2.6,2.5,4.5,4.8,7.5,5.4l.5.1.4,1-19,7.7-.4-1,.2-.4c.8-2.1,0-4.8-2.5-7.4L141.2,48.2l-2,6.6,3.2,7.9c1.3,3.3,3,5.4,6.1,5.9l.6.1.4,1-19.7,8-.4-1,.4-.5c1.8-2.5,1.6-5.2.3-8.5L112.6,24.8c-1.3-3.3-3-5.4-6.1-5.9l-.6-.1-.4-1Z" transform="translate(0 0.1)"/><path class="cls-1" d="M160.5,15.3c8.2-4.3,11.4-7.7,14.3-15.4l2.5,11.7,7.5-1.6.2,1.1-7.5,1.6,7.9,36.7c.7,3.4,2.3,6,5.5,5.3a9.4,9.4,0,0,0,3.2-1.5l.6,1a20,20,0,0,1-10.1,5.9c-5.3,1.1-10.6-.6-12.2-7.9l-6.2-28.7c-.7-3.5-2-5.8-5-6.9l-.6-.2-.2-1.1Z" transform="translate(0 0.1)"/><path class="cls-1" d="M218.7,6.1c37.6-.9,38.9,49.1,1.2,50S181.1,7,218.7,6.1Zm1.2,49c19.2-.5,18-48.3-1.2-47.8S200.7,55.6,219.9,55.1Z" transform="translate(0 0.1)"/><path class="cls-1" d="M255.2,11.3l18.3-2.8-1.3,6.1c2.6-2.5,6.9-2.5,9.6-2,3.3.7,6.9,2.6,10.4,3.3a10.34,10.34,0,0,0,4.3.2l.3.7c-2.8,2.2-4.9,8.4-6.1,12.9l-.8-.2c.7-6.4-3-14.6-9.9-16-3-.6-7.5-.3-9,7l-6.1,29.1c-.7,3.5-.5,6.1,1.8,8.3l.5.4-.2,1.1L246.1,55l.2-1.1.6-.2c3-1.1,4.2-3.4,5-6.9l5.4-25.9c.7-3.5.5-6.1-1.8-8.3l-.5-.4Z" transform="translate(0 0.1)"/><path class="cls-1" d="M367.4,28.2c37.5,24.9-.1,81.9-37.7,56.9L310.5,72.4l.6-.9h.6c3.1.1,5.2-1.6,7.2-4.6l27.5-41.5c2-3,2.7-5.5,1.4-8.4l-.3-.6.6-.9Zm-37.1,56c22.3,14.8,58.8-40.2,36.5-55L362.1,26,325.6,81Z" transform="translate(0 0.1)"/><path class="cls-1" d="M388.2,72.6l16.5,8.2-4.5,4.3c3.6-.6,7.1,1.9,9,3.9,2.3,2.4,4.2,6.1,6.6,8.7a9.66,9.66,0,0,0,3.4,2.6l-.2.8c-3.6.2-8.8,4-12.4,7.1l-.6-.5c4.2-4.9,5.9-13.6,1.1-18.8-2.1-2.3-6-4.6-11.4.5L374,109.7c-2.6,2.4-3.9,4.8-3.3,7.8l.1.6-.8.8-14.6-15.5.8-.8.6.2c3,.8,5.4-.4,8-2.8l19.3-18.1c2.6-2.4,3.9-4.8,3.3-7.8l-.1-.6Z" transform="translate(0 0.1)"/><path class="cls-1" d="M436.6,126.5c5.6,9,4.7,18.5-1,22.1-12.6,7.9-24.8-14.4-35.8-7.5a13.14,13.14,0,0,0-5.7,8.4,9.79,9.79,0,0,0,1.4,3.7c3.9,6.2,13.1,6.5,18.7,3.8l.4.7c-3.8,2.6-8.8,6.6-10,10.1h-.8a13,13,0,0,0-1.8-4.2c-2.2-3.5-5.6-7-7.4-9.8-10-16-4.2-30.6,6.4-37.2C415.2,107.6,430,115.7,436.6,126.5Zm-28,1.6c-7.6,4.7-13.9,11.7-14.6,18.2a14,14,0,0,1,5.2-6.3c8.7-5.4,18.2,6.6,32.3-2.2,4.2-2.6,6.8-6.3,4.2-10.5-3-5.1-14.3-7.2-27.1.8Z" transform="translate(0 0.1)"/><path class="cls-1" d="M392.5,154.3l.5.5c-5.9,3.4-13.3,11.1-10.2,18.6,1.7,4.2,6.8,6.3,14.8,3l41-16.9c3.3-1.4,5.3-3,5.9-6.1l.1-.6,1-.4L458.2,166l-52.7,21.9c-11.9,4.9-19.5-2.6-22.9-11-2.2-5.2-1.5-10.4-3.4-15a13.65,13.65,0,0,0-4.1-5.4l.6-.5C379.5,157.3,387.7,156.4,392.5,154.3Zm74.5-7c3,2.9,4.9,3.7,9.1,3.7-2.9,3.1-3.7,5.2-3.8,9.5-3-3-5.2-3.9-9.4-3.9,3-3,3.9-5.1,4.1-9.3Z" transform="translate(0 0.1)"/><path class="cls-1" d="M98.6,497.1c3.1-.3,5.3-1.8,7.5-4.2l36-40.3,8.8,3.6-5,53.2a10.49,10.49,0,0,0,2.5,8.3l.5.5-.4.9-17.4-7.2.4-.9.4-.2c2.2-.6,2.8-2.7,3-6l1-10.4-21.8-9-3.2,3.6c-6,6.7-6.1,10.9.2,13.5l.4.1-.3.9L97.5,498l.4-.9Zm16.1-12.5,21.3,8.8,3.5-36.3Zm38.9-50c10.4,4.3,3.9,19.8-6.4,15.6C137.1,446,143.2,430.3,153.6,434.6Zm-6.1,14.7c9.1,3.8,14.9-10,5.7-13.8s-14.6,10.1-5.7,13.8Z" transform="translate(0 0.1)"/><path class="cls-1" d="M182.3,462.6l-8,43.8,15.1-12.2c4.1-3.3,3.2-8.3-1.8-9.2l-2.1-.4.2-.9,15.7,2.8-.2.9-.5.2c-4.1,1.5-7.2,4.5-9.9,6.6l-2.5,2,4.9,22.7c.7,3,1,5.5,2.9,7.4l.3.3-.2.9-17.3-3.1.2-.9.3-.2c1.6-1.2,2.2-3.5,1.6-6.5l-2.7-12.7-4.5,3.8-1.3,7.3c-.5,3-.3,5.3,1.7,7.1l.4.4-.2.9-17.9-3.3.2-.9.5-.2c2.5-1,3.5-3.1,4.1-6.1l7.1-39.3c.5-3,.3-5.3-1.7-7.1l-.4-.4.2-.9Z" transform="translate(0 0.1)"/><path class="cls-1" d="M226.4,485.7c9,0,15.6,5,15.6,10.8,0,12.8-21.6,11.6-21.6,22.9a11.55,11.55,0,0,0,3.5,8,7.54,7.54,0,0,0,3.3.7c6.3,0,10.6-6.6,11.2-12h.7c.2,4,.9,9.5,2.9,12l-.4.6a12.72,12.72,0,0,0-3.9-.6c-3.5,0-7.6,1-10.4,1-16.1-.1-24.1-10.9-24.1-21.7C203,492.8,215.5,485.7,226.4,485.7ZM214.9,507c0,7.8,2.2,15.5,6.7,19a11.67,11.67,0,0,1-2.2-6.7c0-8.8,13-10.4,13-24.8,0-4.3-1.5-7.9-5.7-7.9C221.5,486.7,214.9,494,214.9,507Z" transform="translate(0 0.1)"/><path class="cls-1" d="M245.1,488.7l13.6-8.1,1,5.3c1.2-2.8,4.6-4.2,7-4.7,2.8-.5,6.3-.2,9.3-.7a11.18,11.18,0,0,0,3.5-1.2l.5.5c-1.5,2.7-1.2,8.3-.7,12.3l-.7.1c-1.5-5.4-7-10.7-13-9.7-2.6.5-6.1,2.2-5,8.5l4.5,25.3c.5,3,1.6,5.1,4.1,6.1l.5.2.2,1-18,3.2-.2-1,.4-.4c2-1.8,2.2-4.1,1.7-7.1l-4-22.5c-.5-3-1.6-5.1-4.1-6.1l-.5-.2Z" transform="translate(0 0.1)"/><path class="cls-1" d="M283.7,464.6a5.57,5.57,0,1,1,7.1,3.2A5.64,5.64,0,0,1,283.7,464.6Zm17.1,6.6c30.1-11.5,45.6,28.9,15.4,40.4S270.7,482.7,300.8,471.2Zm15,39.5c15.3-5.9.6-44.5-14.8-38.6S300.5,516.6,315.8,510.7Zm-17-51.9A5.57,5.57,0,1,1,306,462,5.54,5.54,0,0,1,298.8,458.8Z" transform="translate(0 0.1)"/></svg>