<svg id="Layer_1" data-name="Layer 1" xmlns="http://www.w3.org/2000/svg" viewBox="0 0 521.42 500.9">
  <defs>
    <style>
      .cls-1 {
        fill: #1e1e24;
      }
    </style>
  </defs>
  <path class="cls-1" d="M307.32,107.2c-2.5-5.6-5-9.2-7.8-10-26.8-8.4-24.1-9.6-66,0-40.8,9.3-54.5,281.6-55.3,296.7a1.19,1.19,0,0,0,.5,1c92.9,57.9,163.4,0,163.3-1.3C341.56,377.3,329.22,157.6,307.32,107.2Zm-72.5,47.1a10.76,10.76,0,1,1,0,.08Zm32.4,54.9a15.1,15.1,0,1,1,15.1-15.1,15.1,15.1,0,0,1-15.1,15.1Zm19.5-44.1a10.8,10.8,0,1,1,10.8-10.8h0a10.77,10.77,0,0,1-10.72,10.78Z" transform="translate(-0.04 -0.03)"/>
  <path class="cls-1" d="M51.19,197.47l-1.81,7.32-33.82,6.86,30.29,7.5L44,226.5,0,215.64l1.81-7.35,33.71-6.82L5.37,194l1.81-7.35Z" transform="translate(-0.04 -0.03)"/>
  <path class="cls-1" d="M61.34,172.34a6.7,6.7,0,0,1-1.55-.1c-.57-.09-1.17-.21-1.8-.37a13.23,13.23,0,0,1,.71,2.21,12.26,12.26,0,0,1,.28,2.49,13.78,13.78,0,0,1-1.09,5.57,14.6,14.6,0,0,1-2.59,4.16,11,11,0,0,1-3.39,2.6A10.08,10.08,0,0,1,38,182.14q-1.06-4.83,1.86-11.77l2.12-5-2-.85a5.34,5.34,0,0,0-4.62,0,7.56,7.56,0,0,0-3.43,4.09,8.69,8.69,0,0,0-.69,2.55,5.38,5.38,0,0,0,.18,2.11,4,4,0,0,0,.91,1.6,4.28,4.28,0,0,0,1.52,1l-2.89,6.86a8.27,8.27,0,0,1-3.16-2.33,10.05,10.05,0,0,1-2-3.76,14,14,0,0,1-.45-4.91A18.13,18.13,0,0,1,26.79,166a20.39,20.39,0,0,1,2.77-4.81A13.13,13.13,0,0,1,33.29,158a10.18,10.18,0,0,1,4.47-1.29,11.36,11.36,0,0,1,5.07,1l13.83,5.83a21.7,21.7,0,0,0,3.85,1.27,12.5,12.5,0,0,0,3.28.35l.49.21Zm-8.45,6.17a10,10,0,0,0,.72-2.62,11.24,11.24,0,0,0,0-2.46,7.78,7.78,0,0,0-.54-2.12,7.62,7.62,0,0,0-1-1.67l-5.83-2.46-1.84,4.37q-1.77,4.19-1.26,6.75a4.75,4.75,0,0,0,3,3.62,5.14,5.14,0,0,0,1.89.42,4.06,4.06,0,0,0,1.82-.36,5.14,5.14,0,0,0,1.71-1.25A7.94,7.94,0,0,0,52.89,178.51Z" transform="translate(-0.04 -0.03)"/>
  <path class="cls-1" d="M39.31,125.54l6.92,4.32L53,119.08l4.7,2.93-6.75,10.81,13.71,8.56a9.47,9.47,0,0,0,2.91,1.28,5,5,0,0,0,2.36,0,4.43,4.43,0,0,0,1.89-1,9.15,9.15,0,0,0,1.52-1.88,18.06,18.06,0,0,0,1-1.76c.31-.63.6-1.25.86-1.85s.5-1.17.7-1.7.34-1,.45-1.35l4.81,2a11.44,11.44,0,0,1-.31,2.1,16.07,16.07,0,0,1-.77,2.44c-.33.85-.71,1.7-1.14,2.57s-.9,1.7-1.39,2.49a14.64,14.64,0,0,1-3,3.56,9.26,9.26,0,0,1-3.76,1.91,10,10,0,0,1-4.48,0A15.89,15.89,0,0,1,61.13,148L47,139.08l-4.35,7-4.71-2.94,4.36-7-6.92-4.33Z" transform="translate(-0.04 -0.03)"/>
  <path class="cls-1" d="M99.82,115a6.89,6.89,0,0,1-1.44-.58c-.51-.26-1-.57-1.6-.92a11.84,11.84,0,0,1-.51,4.78,14.43,14.43,0,0,1-1.06,2.5,13.42,13.42,0,0,1-1.72,2.44,14.41,14.41,0,0,1-3.76,3.15,11.19,11.19,0,0,1-4,1.41,9.49,9.49,0,0,1-4-.3A10.35,10.35,0,0,1,74.56,117q.5-4.92,5.45-10.61l3.58-4.11-1.67-1.45a5.38,5.38,0,0,0-4.39-1.43A7.53,7.53,0,0,0,73,102.21a8.23,8.23,0,0,0-1.45,2.2,5.46,5.46,0,0,0-.49,2.06,4,4,0,0,0,.37,1.8,4.43,4.43,0,0,0,1.11,1.47l-4.89,5.61a8.52,8.52,0,0,1-2.27-3.19,10,10,0,0,1-.72-4.2,13.72,13.72,0,0,1,1.11-4.8,18.11,18.11,0,0,1,3.19-5,20,20,0,0,1,4.2-3.7,13,13,0,0,1,4.55-1.9,10.15,10.15,0,0,1,4.65.16,11.39,11.39,0,0,1,4.51,2.53l11.31,9.83a22.62,22.62,0,0,0,3.26,2.4,12.68,12.68,0,0,0,3,1.36l.4.35Zm-9.95,3.22a9.82,9.82,0,0,0,1.5-2.27,10.67,10.67,0,0,0,.79-2.33,7.61,7.61,0,0,0,.14-2.18,7.14,7.14,0,0,0-.38-1.88l-4.76-4.16L84.05,109q-3,3.43-3.31,6a4.74,4.74,0,0,0,1.72,4.38,5.46,5.46,0,0,0,1.67,1,4.11,4.11,0,0,0,1.84.21,5.11,5.11,0,0,0,1.93-.67A8.09,8.09,0,0,0,89.87,118.2Z" transform="translate(-0.04 -0.03)"/>
  <path class="cls-1" d="M79.26,67.73,93.26,56,120,88l7.88-6.59,4,4.73L110,104.46l-4-4.73,8.22-6.87L91.46,65.61l-8.22,6.87Z" transform="translate(-0.04 -0.03)"/>
  <path class="cls-1" d="M120,53.63l15.43-9.22,14.17,23.67L158.14,63l3.17,5.29-24,14.36-3.17-5.29,9-5.37-11-18.31-9,5.37Zm4-12.53a4,4,0,0,1-.51-3,4.2,4.2,0,0,1,2.11-2.64,4.33,4.33,0,0,1,3.32-.66,4.21,4.21,0,0,1,3,4.94,4.35,4.35,0,0,1-2.15,2.62,4.29,4.29,0,0,1-3.29.64,4,4,0,0,1-2.51-1.92Z" transform="translate(-0.04 -0.03)"/>
  <path class="cls-1" d="M185.88,57.94a7.38,7.38,0,0,1-1-1.16c-.33-.47-.67-1-1-1.55a12.19,12.19,0,0,1-1.07,2.06,12.69,12.69,0,0,1-1.57,2A14.43,14.43,0,0,1,179.16,61a14,14,0,0,1-2.65,1.4,14.53,14.53,0,0,1-4.77,1.09,11.06,11.06,0,0,1-4.23-.58,9.39,9.39,0,0,1-5.67-5.46,9.53,9.53,0,0,1,.65-9.19q2.69-4.15,9.67-7l5.06-2-.82-2A5.4,5.4,0,0,0,173.14,34a7.61,7.61,0,0,0-5.33.45,8.86,8.86,0,0,0-2.3,1.3,5.69,5.69,0,0,0-1.36,1.61,4.14,4.14,0,0,0-.5,1.78A4.31,4.31,0,0,0,164,41l-6.91,2.78a8.43,8.43,0,0,1-.57-3.88,10.09,10.09,0,0,1,1.27-4.07A13.84,13.84,0,0,1,160.94,32a18.18,18.18,0,0,1,5.12-3,19.57,19.57,0,0,1,5.42-1.39,12.91,12.91,0,0,1,4.91.38,10,10,0,0,1,4.07,2.26,11.38,11.38,0,0,1,2.87,4.3l5.59,13.93a23,23,0,0,0,1.79,3.58,13.12,13.12,0,0,0,2.06,2.58l.2.49Zm-10.32-1.65A9.4,9.4,0,0,0,177.93,55a10.54,10.54,0,0,0,1.76-1.71,8.17,8.17,0,0,0,1.13-1.88,7.36,7.36,0,0,0,.51-1.85L179,43.64l-4.41,1.76c-2.81,1.13-4.71,2.42-5.68,3.86a4.73,4.73,0,0,0-.45,4.68,5.25,5.25,0,0,0,1,1.65,3.77,3.77,0,0,0,1.54,1,5.22,5.22,0,0,0,2,.28A7.93,7.93,0,0,0,175.56,56.29Z" transform="translate(-0.04 -0.03)"/>
  <path class="cls-1" d="M232.07,46.24,229.13,1,243.56.08a25.86,25.86,0,0,1,6.15.35,14.91,14.91,0,0,1,5.12,1.88,10.63,10.63,0,0,1,3.59,3.59A11.58,11.58,0,0,1,260,11.31a9.25,9.25,0,0,1-1.5,5.85,12,12,0,0,1-4.7,4,11.62,11.62,0,0,1,3.47,1.29,9.33,9.33,0,0,1,2.62,2.18,10.27,10.27,0,0,1,1.71,2.91,11.37,11.37,0,0,1,.76,3.5,13,13,0,0,1-.81,5.76,11.54,11.54,0,0,1-2.95,4.28,14.76,14.76,0,0,1-4.81,2.82,21.88,21.88,0,0,1-6.19,1.33Zm5.78-26.69,7.15-.46a11.75,11.75,0,0,0,3.1-.66,7.49,7.49,0,0,0,2.46-1.35A6.13,6.13,0,0,0,252.1,15a5.88,5.88,0,0,0,.46-2.87,6.77,6.77,0,0,0-.78-2.89A5.37,5.37,0,0,0,250,7.31a7.22,7.22,0,0,0-2.61-1,15.88,15.88,0,0,0-3.23-.18l-7.08.46Zm.37,5.69.94,14.42,8.14-.53a10.37,10.37,0,0,0,3.2-.75,8,8,0,0,0,2.43-1.58,6.38,6.38,0,0,0,1.51-2.32,6.82,6.82,0,0,0,.42-3,8.16,8.16,0,0,0-.73-3,6,6,0,0,0-1.67-2.19A6.86,6.86,0,0,0,249.94,25a9.77,9.77,0,0,0-3.23-.33Z" transform="translate(-0.04 -0.03)"/>
  <path class="cls-1" d="M288.36,46.47A6.48,6.48,0,0,1,288,45c-.08-.57-.14-1.18-.19-1.83a12.44,12.44,0,0,1-1.89,1.34,12.92,12.92,0,0,1-2.29,1,14.1,14.1,0,0,1-2.65.59,13.68,13.68,0,0,1-3,0,14.46,14.46,0,0,1-4.75-1.21,11.11,11.11,0,0,1-3.49-2.46,9.32,9.32,0,0,1-2.06-3.32,9.52,9.52,0,0,1-.47-4,9.56,9.56,0,0,1,4.8-7.87q4.27-2.48,11.78-1.76l5.43.51.21-2.21a5.39,5.39,0,0,0-1.4-4.4,7.5,7.5,0,0,0-4.94-2,8.36,8.36,0,0,0-2.64.11,5.47,5.47,0,0,0-1.95.8,3.85,3.85,0,0,0-1.25,1.35,4.26,4.26,0,0,0-.55,1.77l-7.41-.7a8.6,8.6,0,0,1,1.29-3.83,10,10,0,0,1,3-3A14,14,0,0,1,278.1,12a18.19,18.19,0,0,1,5.93-.32,20,20,0,0,1,5.45,1.25,13,13,0,0,1,4.19,2.58,10,10,0,0,1,2.58,3.88,11.32,11.32,0,0,1,.58,5.13L295.4,39.38a24.28,24.28,0,0,0,0,4,13.23,13.23,0,0,0,.65,3.23l-.05.53Zm-8.43-6.2a10.25,10.25,0,0,0,5.07-.82,8,8,0,0,0,1.86-1.16,7.56,7.56,0,0,0,1.3-1.41l.6-6.29L284,30.15c-3-.29-5.29,0-6.82.82a4.75,4.75,0,0,0-2.54,4,5.29,5.29,0,0,0,.16,1.94,4,4,0,0,0,.89,1.61,5.33,5.33,0,0,0,1.68,1.18A7.77,7.77,0,0,0,279.93,40.27Z" transform="translate(-0.04 -0.03)"/>
  <path class="cls-1" d="M314.69,2.19,332.34,6.7,322,47.08l10,2.54-1.53,6-27.61-7,1.52-6,10.39,2.65,8.75-34.42L313.16,8.2Z" transform="translate(-0.04 -0.03)"/>
  <path class="cls-1" d="M355.29,13.87,372,21.08,355.56,59.35,365,63.42l-2.5,5.66L336.34,57.8l2.44-5.66,9.84,4.24,14.05-32.57-9.84-4.25Z" transform="translate(-0.04 -0.03)"/>
  <path class="cls-1" d="M384.88,83a6.6,6.6,0,0,1,.36-1.52q.27-.81.66-1.71a12.64,12.64,0,0,1-2.29.33,12.3,12.3,0,0,1-2.5-.13,14.22,14.22,0,0,1-2.64-.68,13.86,13.86,0,0,1-2.67-1.33,14.65,14.65,0,0,1-3.68-3.25,11.32,11.32,0,0,1-2-3.77,10.09,10.09,0,0,1,7.2-12.32,10.91,10.91,0,0,1,1.8-.3q4.94-.25,11.3,3.79L395,65l1.19-1.87A5.33,5.33,0,0,0,397,58.6a7.57,7.57,0,0,0-3.46-4.07,8.56,8.56,0,0,0-2.4-1.1,5.57,5.57,0,0,0-2.11-.18,4.12,4.12,0,0,0-1.73.64A4.24,4.24,0,0,0,386,55.21l-6.28-4a8.37,8.37,0,0,1,2.86-2.72,10.14,10.14,0,0,1,4-1.34,13.76,13.76,0,0,1,4.91.37,18,18,0,0,1,5.43,2.42,19.91,19.91,0,0,1,4.28,3.59,12.64,12.64,0,0,1,2.56,4.21,10.23,10.23,0,0,1,.54,4.62,11.43,11.43,0,0,1-1.83,4.84L394.4,79.87a21.85,21.85,0,0,0-1.89,3.58,12.89,12.89,0,0,0-.89,3.17l-.29.45Zm-4.67-9.36a9.66,9.66,0,0,0,2.46,1.14,10.51,10.51,0,0,0,2.42.43,8,8,0,0,0,2.18-.18,7.27,7.27,0,0,0,1.81-.66L392.47,69l-4-2.54Q384.63,64,382,64.11A4.74,4.74,0,0,0,378,66.47a5.36,5.36,0,0,0-.74,1.8,4.13,4.13,0,0,0,.06,1.85,5.23,5.23,0,0,0,1,1.8A7.68,7.68,0,0,0,380.21,73.62Z" transform="translate(-0.04 -0.03)"/>
  <path class="cls-1" d="M435.85,80.13c.46.4.89.82,1.31,1.25s.82.86,1.18,1.28.67.83,1,1.2a7.45,7.45,0,0,1,.65,1l-5.65,4.78a31.23,31.23,0,0,0-4.54-5.07,10.64,10.64,0,0,0-5.55-2.83,9.13,9.13,0,0,0-5.4,1l-14,15.76-5.57-4.94,22.35-25.22L426.85,73l-3.23,4.17a15.48,15.48,0,0,1,6.5,0A12.57,12.57,0,0,1,435.85,80.13Z" transform="translate(-0.04 -0.03)"/>
  <path class="cls-1" d="M434,102.26a24.81,24.81,0,0,1,6-3.73A16.32,16.32,0,0,1,446,97.14a11.94,11.94,0,0,1,5.4,1,12.3,12.3,0,0,1,4.49,3.5,11.75,11.75,0,0,1,2.38,4.39,10.78,10.78,0,0,1,.24,4.59L471.74,99.7l4.75,5.78-36.93,30.39-4.29-5.22,2.4-2.46a10.74,10.74,0,0,1-4.74-1,12.08,12.08,0,0,1-4.1-3.34,11.61,11.61,0,0,1-2.5-5.08,12.45,12.45,0,0,1,.09-5.5,16.87,16.87,0,0,1,2.48-5.5,23.3,23.3,0,0,1,4.65-5.06Zm4.22,6.16a20.26,20.26,0,0,0-3,3,10.88,10.88,0,0,0-1.82,3.28,7.13,7.13,0,0,0-.27,3.37,6.84,6.84,0,0,0,1.58,3.28,7.28,7.28,0,0,0,3.51,2.52,7.85,7.85,0,0,0,3.94.11l11.3-9.3a7.79,7.79,0,0,0,.61-3.87,7.28,7.28,0,0,0-1.75-3.85,6.81,6.81,0,0,0-2.94-2.2,7,7,0,0,0-3.4-.36,11.05,11.05,0,0,0-3.63,1.18,18.79,18.79,0,0,0-3.61,2.38Z" transform="translate(-0.04 -0.03)"/>
  <path class="cls-1" d="M473,125.36l9.1,15.49-23.74,14,5.06,8.62-5.32,3.12L444,142.42l5.32-3.12,5.3,9L473,137.5l-5.3-9Zm12.5,4.07a4,4,0,0,1,3-.5,4.24,4.24,0,0,1,2.57,2.14,4.31,4.31,0,0,1,.64,3.33,4.22,4.22,0,0,1-5,2.92,4.34,4.34,0,0,1-2.59-2.18,4.2,4.2,0,0,1-.62-3.29,4,4,0,0,1,2-2.42Z" transform="translate(-0.04 -0.03)"/>
  <path class="cls-1" d="M494.16,165.17,490,167.32a12.94,12.94,0,0,1,5.26,2.7,12.22,12.22,0,0,1,3.4,4.87,13.9,13.9,0,0,1,1,4.67,9.24,9.24,0,0,1-.83,4.27,10.75,10.75,0,0,1-2.95,3.74,19.25,19.25,0,0,1-5.34,3l-19.6,7.69-2.72-6.93,19.49-7.64a10.94,10.94,0,0,0,3.07-1.73,5.5,5.5,0,0,0,1.58-2.09,5,5,0,0,0,.33-2.45,10.63,10.63,0,0,0-.73-2.83,8.17,8.17,0,0,0-2.57-3.59,8.6,8.6,0,0,0-3.83-1.66L463,178.17l-2.73-7,31.37-12.31Z" transform="translate(-0.04 -0.03)"/>
  <path class="cls-1" d="M505.83,198.08l3.85,17.55-26.9,5.89,2.14,9.77-6,1.32-6-27.32,6-1.32,2.24,10.22L502,209.63l-2.24-10.23Zm10.63,7.74a4,4,0,0,1,3,.48,4.18,4.18,0,0,1,1.78,2.83,4.34,4.34,0,0,1-.42,3.36,4.22,4.22,0,0,1-5.63,1.24,4.36,4.36,0,0,1-1.79-2.88,4.22,4.22,0,0,1,.43-3.31,3.94,3.94,0,0,1,2.58-1.69Z" transform="translate(-0.04 -0.03)"/>
  <path class="cls-1" d="M184.16,481.15,170.33,477l-6.1,9.37-7.54-2.25,27.57-40,6.41,1.91.91,48.45-7.51-2.24ZM174,471.35l10.15,3,.16-18.84Zm9.52-36.57a5.92,5.92,0,0,1,1.24-2.25,6.54,6.54,0,0,1,4.36-2.14,7.14,7.14,0,0,1,2.64.29,7,7,0,0,1,2.33,1.19,6.61,6.61,0,0,1,1.63,1.86,6.08,6.08,0,0,1,.57,4.9,6,6,0,0,1-3.1,3.74,6.31,6.31,0,0,1-2.37.62,7.58,7.58,0,0,1-2.59-.31,7.88,7.88,0,0,1-2.38-1.17,6.33,6.33,0,0,1-2.5-4.11A6,6,0,0,1,183.56,434.78Zm3.32,1a3.18,3.18,0,0,0-.13,1.3,3.06,3.06,0,0,0,.4,1.18,3.68,3.68,0,0,0,.81.95,3.2,3.2,0,0,0,1.12.6,3,3,0,0,0,2.39-.23,3.23,3.23,0,0,0,1.52-2,3.32,3.32,0,0,0-.17-2.53,3,3,0,0,0-1.87-1.52,3.21,3.21,0,0,0-1.27-.13,3.26,3.26,0,0,0-2.18,1.15,3.48,3.48,0,0,0-.6,1.22Z" transform="translate(-0.04 -0.03)"/>
  <path class="cls-1" d="M214.56,482.89l-4.6,3.36-1.44,11-7.52-1L207.36,448l7.52,1-3.75,28.45,3.64-3.13,11.4-9.31,9.05,1.19-15,12.42,12.54,21.86-9.37-1.23Z" transform="translate(-0.04 -0.03)"/>
  <path class="cls-1" d="M259.39,500.91a18.52,18.52,0,0,1-7-1.07,16,16,0,0,1-5.47-3.34,15.37,15.37,0,0,1-3.62-5.15,17.2,17.2,0,0,1-1.42-6.51v-1.3a19.77,19.77,0,0,1,1.11-7.39,17.57,17.57,0,0,1,3.36-5.68,15.27,15.27,0,0,1,5-3.69,15.65,15.65,0,0,1,6.13-1.41,16.3,16.3,0,0,1,6.63,1.07,13,13,0,0,1,4.87,3.38,15.42,15.42,0,0,1,3.08,5.26,22.73,22.73,0,0,1,1.17,6.79l.09,3.2-23.77.67a10.79,10.79,0,0,0,1.09,3.68,9.78,9.78,0,0,0,2.15,2.91,9.52,9.52,0,0,0,3.07,1.88,9.89,9.89,0,0,0,3.81.6,12.27,12.27,0,0,0,5.28-1.29,10.44,10.44,0,0,0,3.86-3.24L273,494a13,13,0,0,1-2,2.45,14.8,14.8,0,0,1-3,2.15,18,18,0,0,1-3.87,1.56A19.33,19.33,0,0,1,259.39,500.91Zm-1.74-29.42a7.39,7.39,0,0,0-5.33,2.38,9.49,9.49,0,0,0-1.74,2.72,13.13,13.13,0,0,0-1,3.59l16.07-.45v-.57a11.19,11.19,0,0,0-.67-2.91,7.8,7.8,0,0,0-1.51-2.48,7,7,0,0,0-2.45-1.71A7.79,7.79,0,0,0,257.65,471.49Z" transform="translate(-0.04 -0.03)"/>
  <path class="cls-1" d="M302.69,459.76c.6-.11,1.21-.21,1.82-.28s1.2-.12,1.76-.14,1.09,0,1.56,0a7.1,7.1,0,0,1,1.22.11l.32,7.53a30.81,30.81,0,0,0-6.91.49,10.78,10.78,0,0,0-5.74,2.69,9.3,9.3,0,0,0-2.56,5l4,21.07-7.45,1.4-6.34-33.72,7-1.31,1.33,5.2a15.89,15.89,0,0,1,4.07-5.24A12.89,12.89,0,0,1,302.69,459.76Z" transform="translate(-0.04 -0.03)"/>
  <path class="cls-1" d="M316,446.81a3.63,3.63,0,0,1,.11-2.87,4.53,4.53,0,0,1,5.52-2,3.64,3.64,0,0,1,1.9,2.15,3.58,3.58,0,0,1-.11,2.85,4.57,4.57,0,0,1-5.53,2A3.58,3.58,0,0,1,316,446.81Zm4.51,26.74a21,21,0,0,1-1.3-6.88,16.44,16.44,0,0,1,1.09-6.28,14.31,14.31,0,0,1,3.47-5.14,16.05,16.05,0,0,1,5.85-3.51,16.37,16.37,0,0,1,6.79-1,14.21,14.21,0,0,1,6,1.78,16.31,16.31,0,0,1,4.81,4.17,21.86,21.86,0,0,1,3.34,6.15l.22.63a21.65,21.65,0,0,1,1.32,6.9,16.11,16.11,0,0,1-1.08,6.26,14.48,14.48,0,0,1-3.47,5.13,16,16,0,0,1-5.85,3.51,16.37,16.37,0,0,1-6.79,1,14.42,14.42,0,0,1-6-1.76,16.28,16.28,0,0,1-4.81-4.16,21.06,21.06,0,0,1-3.37-6.17Zm7.36-1.92a19.19,19.19,0,0,0,1.94,4,11.31,11.31,0,0,0,2.66,2.9,7.87,7.87,0,0,0,10.33-1.09,7.7,7.7,0,0,0,1.61-3.2,11.11,11.11,0,0,0,.21-3.94,18.75,18.75,0,0,0-1-4.31l-.22-.63a18.51,18.51,0,0,0-1.92-3.92,11.27,11.27,0,0,0-2.65-2.9,7.82,7.82,0,0,0-3.28-1.45,8.15,8.15,0,0,0-7.07,2.52,7.68,7.68,0,0,0-1.61,3.21,11.42,11.42,0,0,0-.21,3.91,19.33,19.33,0,0,0,1,4.25ZM329.56,442a3.59,3.59,0,0,1,.1-2.84,3.88,3.88,0,0,1,2.38-2,4,4,0,0,1,3.12,0,3.84,3.84,0,0,1,1.79,5,4.51,4.51,0,0,1-5.51,2A3.71,3.71,0,0,1,329.56,442Z" transform="translate(-0.04 -0.03)"/>
</svg>
